<mxfile host="app.diagrams.net" modified="2024-04-14T01:06:51.280Z" agent="Mozilla/5.0 (Windows NT 10.0; Win64; x64) AppleWebKit/537.36 (KHTML, like Gecko) Chrome/123.0.0.0 Safari/537.36" etag="k1P-T5x0t-8lcENqd3YQ" version="24.2.5" type="github">
  <diagram id="R2lEEEUBdFMjLlhIrx00" name="Page-1">
    <mxGraphModel dx="1235" dy="655" grid="1" gridSize="10" guides="1" tooltips="1" connect="1" arrows="1" fold="1" page="1" pageScale="1" pageWidth="850" pageHeight="1100" math="0" shadow="0" extFonts="Permanent Marker^https://fonts.googleapis.com/css?family=Permanent+Marker">
      <root>
        <mxCell id="0" />
        <mxCell id="1" parent="0" />
        <mxCell id="oTnFx4NHUfr4klIpMlkJ-42" value="Users" style="shape=table;startSize=30;container=1;collapsible=1;childLayout=tableLayout;fixedRows=1;rowLines=0;fontStyle=1;align=center;resizeLast=1;html=1;" vertex="1" parent="1">
          <mxGeometry x="238" y="290" width="250" height="150" as="geometry" />
        </mxCell>
        <mxCell id="oTnFx4NHUfr4klIpMlkJ-43" value="" style="shape=tableRow;horizontal=0;startSize=0;swimlaneHead=0;swimlaneBody=0;fillColor=none;collapsible=0;dropTarget=0;points=[[0,0.5],[1,0.5]];portConstraint=eastwest;top=0;left=0;right=0;bottom=1;" vertex="1" parent="oTnFx4NHUfr4klIpMlkJ-42">
          <mxGeometry y="30" width="250" height="30" as="geometry" />
        </mxCell>
        <mxCell id="oTnFx4NHUfr4klIpMlkJ-44" value="PK" style="shape=partialRectangle;connectable=0;fillColor=none;top=0;left=0;bottom=0;right=0;fontStyle=1;overflow=hidden;whiteSpace=wrap;html=1;" vertex="1" parent="oTnFx4NHUfr4klIpMlkJ-43">
          <mxGeometry width="30" height="30" as="geometry">
            <mxRectangle width="30" height="30" as="alternateBounds" />
          </mxGeometry>
        </mxCell>
        <mxCell id="oTnFx4NHUfr4klIpMlkJ-45" value="id int NOT NULL" style="shape=partialRectangle;connectable=0;fillColor=none;top=0;left=0;bottom=0;right=0;align=left;spacingLeft=6;fontStyle=5;overflow=hidden;whiteSpace=wrap;html=1;" vertex="1" parent="oTnFx4NHUfr4klIpMlkJ-43">
          <mxGeometry x="30" width="220" height="30" as="geometry">
            <mxRectangle width="220" height="30" as="alternateBounds" />
          </mxGeometry>
        </mxCell>
        <mxCell id="oTnFx4NHUfr4klIpMlkJ-46" value="" style="shape=tableRow;horizontal=0;startSize=0;swimlaneHead=0;swimlaneBody=0;fillColor=none;collapsible=0;dropTarget=0;points=[[0,0.5],[1,0.5]];portConstraint=eastwest;top=0;left=0;right=0;bottom=0;" vertex="1" parent="oTnFx4NHUfr4klIpMlkJ-42">
          <mxGeometry y="60" width="250" height="30" as="geometry" />
        </mxCell>
        <mxCell id="oTnFx4NHUfr4klIpMlkJ-47" value="" style="shape=partialRectangle;connectable=0;fillColor=none;top=0;left=0;bottom=0;right=0;editable=1;overflow=hidden;whiteSpace=wrap;html=1;" vertex="1" parent="oTnFx4NHUfr4klIpMlkJ-46">
          <mxGeometry width="30" height="30" as="geometry">
            <mxRectangle width="30" height="30" as="alternateBounds" />
          </mxGeometry>
        </mxCell>
        <mxCell id="oTnFx4NHUfr4klIpMlkJ-48" value="username char(50) NOT NULL" style="shape=partialRectangle;connectable=0;fillColor=none;top=0;left=0;bottom=0;right=0;align=left;spacingLeft=6;overflow=hidden;whiteSpace=wrap;html=1;" vertex="1" parent="oTnFx4NHUfr4klIpMlkJ-46">
          <mxGeometry x="30" width="220" height="30" as="geometry">
            <mxRectangle width="220" height="30" as="alternateBounds" />
          </mxGeometry>
        </mxCell>
        <mxCell id="oTnFx4NHUfr4klIpMlkJ-49" value="" style="shape=tableRow;horizontal=0;startSize=0;swimlaneHead=0;swimlaneBody=0;fillColor=none;collapsible=0;dropTarget=0;points=[[0,0.5],[1,0.5]];portConstraint=eastwest;top=0;left=0;right=0;bottom=0;" vertex="1" parent="oTnFx4NHUfr4klIpMlkJ-42">
          <mxGeometry y="90" width="250" height="30" as="geometry" />
        </mxCell>
        <mxCell id="oTnFx4NHUfr4klIpMlkJ-50" value="" style="shape=partialRectangle;connectable=0;fillColor=none;top=0;left=0;bottom=0;right=0;editable=1;overflow=hidden;whiteSpace=wrap;html=1;" vertex="1" parent="oTnFx4NHUfr4klIpMlkJ-49">
          <mxGeometry width="30" height="30" as="geometry">
            <mxRectangle width="30" height="30" as="alternateBounds" />
          </mxGeometry>
        </mxCell>
        <mxCell id="oTnFx4NHUfr4klIpMlkJ-51" value="password char(50) NOT NULL" style="shape=partialRectangle;connectable=0;fillColor=none;top=0;left=0;bottom=0;right=0;align=left;spacingLeft=6;overflow=hidden;whiteSpace=wrap;html=1;" vertex="1" parent="oTnFx4NHUfr4klIpMlkJ-49">
          <mxGeometry x="30" width="220" height="30" as="geometry">
            <mxRectangle width="220" height="30" as="alternateBounds" />
          </mxGeometry>
        </mxCell>
        <mxCell id="oTnFx4NHUfr4klIpMlkJ-52" value="" style="shape=tableRow;horizontal=0;startSize=0;swimlaneHead=0;swimlaneBody=0;fillColor=none;collapsible=0;dropTarget=0;points=[[0,0.5],[1,0.5]];portConstraint=eastwest;top=0;left=0;right=0;bottom=0;" vertex="1" parent="oTnFx4NHUfr4klIpMlkJ-42">
          <mxGeometry y="120" width="250" height="30" as="geometry" />
        </mxCell>
        <mxCell id="oTnFx4NHUfr4klIpMlkJ-53" value="" style="shape=partialRectangle;connectable=0;fillColor=none;top=0;left=0;bottom=0;right=0;editable=1;overflow=hidden;whiteSpace=wrap;html=1;" vertex="1" parent="oTnFx4NHUfr4klIpMlkJ-52">
          <mxGeometry width="30" height="30" as="geometry">
            <mxRectangle width="30" height="30" as="alternateBounds" />
          </mxGeometry>
        </mxCell>
        <mxCell id="oTnFx4NHUfr4klIpMlkJ-54" value="isActive boolean NOT NULL" style="shape=partialRectangle;connectable=0;fillColor=none;top=0;left=0;bottom=0;right=0;align=left;spacingLeft=6;overflow=hidden;whiteSpace=wrap;html=1;" vertex="1" parent="oTnFx4NHUfr4klIpMlkJ-52">
          <mxGeometry x="30" width="220" height="30" as="geometry">
            <mxRectangle width="220" height="30" as="alternateBounds" />
          </mxGeometry>
        </mxCell>
        <mxCell id="oTnFx4NHUfr4klIpMlkJ-55" value="Roles" style="shape=table;startSize=30;container=1;collapsible=1;childLayout=tableLayout;fixedRows=1;rowLines=0;fontStyle=1;align=center;resizeLast=1;html=1;" vertex="1" parent="1">
          <mxGeometry x="541" y="122" width="250" height="90" as="geometry" />
        </mxCell>
        <mxCell id="oTnFx4NHUfr4klIpMlkJ-56" value="" style="shape=tableRow;horizontal=0;startSize=0;swimlaneHead=0;swimlaneBody=0;fillColor=none;collapsible=0;dropTarget=0;points=[[0,0.5],[1,0.5]];portConstraint=eastwest;top=0;left=0;right=0;bottom=1;" vertex="1" parent="oTnFx4NHUfr4klIpMlkJ-55">
          <mxGeometry y="30" width="250" height="30" as="geometry" />
        </mxCell>
        <mxCell id="oTnFx4NHUfr4klIpMlkJ-57" value="PK" style="shape=partialRectangle;connectable=0;fillColor=none;top=0;left=0;bottom=0;right=0;fontStyle=1;overflow=hidden;whiteSpace=wrap;html=1;" vertex="1" parent="oTnFx4NHUfr4klIpMlkJ-56">
          <mxGeometry width="30" height="30" as="geometry">
            <mxRectangle width="30" height="30" as="alternateBounds" />
          </mxGeometry>
        </mxCell>
        <mxCell id="oTnFx4NHUfr4klIpMlkJ-58" value="id int NOT NULL" style="shape=partialRectangle;connectable=0;fillColor=none;top=0;left=0;bottom=0;right=0;align=left;spacingLeft=6;fontStyle=5;overflow=hidden;whiteSpace=wrap;html=1;" vertex="1" parent="oTnFx4NHUfr4klIpMlkJ-56">
          <mxGeometry x="30" width="220" height="30" as="geometry">
            <mxRectangle width="220" height="30" as="alternateBounds" />
          </mxGeometry>
        </mxCell>
        <mxCell id="oTnFx4NHUfr4klIpMlkJ-59" value="" style="shape=tableRow;horizontal=0;startSize=0;swimlaneHead=0;swimlaneBody=0;fillColor=none;collapsible=0;dropTarget=0;points=[[0,0.5],[1,0.5]];portConstraint=eastwest;top=0;left=0;right=0;bottom=0;" vertex="1" parent="oTnFx4NHUfr4klIpMlkJ-55">
          <mxGeometry y="60" width="250" height="30" as="geometry" />
        </mxCell>
        <mxCell id="oTnFx4NHUfr4klIpMlkJ-60" value="" style="shape=partialRectangle;connectable=0;fillColor=none;top=0;left=0;bottom=0;right=0;editable=1;overflow=hidden;whiteSpace=wrap;html=1;" vertex="1" parent="oTnFx4NHUfr4klIpMlkJ-59">
          <mxGeometry width="30" height="30" as="geometry">
            <mxRectangle width="30" height="30" as="alternateBounds" />
          </mxGeometry>
        </mxCell>
        <mxCell id="oTnFx4NHUfr4klIpMlkJ-61" value="name char(50) NOT NULL" style="shape=partialRectangle;connectable=0;fillColor=none;top=0;left=0;bottom=0;right=0;align=left;spacingLeft=6;overflow=hidden;whiteSpace=wrap;html=1;" vertex="1" parent="oTnFx4NHUfr4klIpMlkJ-59">
          <mxGeometry x="30" width="220" height="30" as="geometry">
            <mxRectangle width="220" height="30" as="alternateBounds" />
          </mxGeometry>
        </mxCell>
        <mxCell id="oTnFx4NHUfr4klIpMlkJ-68" value="Menus" style="shape=table;startSize=30;container=1;collapsible=1;childLayout=tableLayout;fixedRows=1;rowLines=0;fontStyle=1;align=center;resizeLast=1;html=1;" vertex="1" parent="1">
          <mxGeometry x="535" y="432" width="250" height="120" as="geometry" />
        </mxCell>
        <mxCell id="oTnFx4NHUfr4klIpMlkJ-69" value="" style="shape=tableRow;horizontal=0;startSize=0;swimlaneHead=0;swimlaneBody=0;fillColor=none;collapsible=0;dropTarget=0;points=[[0,0.5],[1,0.5]];portConstraint=eastwest;top=0;left=0;right=0;bottom=1;" vertex="1" parent="oTnFx4NHUfr4klIpMlkJ-68">
          <mxGeometry y="30" width="250" height="30" as="geometry" />
        </mxCell>
        <mxCell id="oTnFx4NHUfr4klIpMlkJ-70" value="PK" style="shape=partialRectangle;connectable=0;fillColor=none;top=0;left=0;bottom=0;right=0;fontStyle=1;overflow=hidden;whiteSpace=wrap;html=1;" vertex="1" parent="oTnFx4NHUfr4klIpMlkJ-69">
          <mxGeometry width="30" height="30" as="geometry">
            <mxRectangle width="30" height="30" as="alternateBounds" />
          </mxGeometry>
        </mxCell>
        <mxCell id="oTnFx4NHUfr4klIpMlkJ-71" value="id int NOT NULL" style="shape=partialRectangle;connectable=0;fillColor=none;top=0;left=0;bottom=0;right=0;align=left;spacingLeft=6;fontStyle=5;overflow=hidden;whiteSpace=wrap;html=1;" vertex="1" parent="oTnFx4NHUfr4klIpMlkJ-69">
          <mxGeometry x="30" width="220" height="30" as="geometry">
            <mxRectangle width="220" height="30" as="alternateBounds" />
          </mxGeometry>
        </mxCell>
        <mxCell id="oTnFx4NHUfr4klIpMlkJ-72" value="" style="shape=tableRow;horizontal=0;startSize=0;swimlaneHead=0;swimlaneBody=0;fillColor=none;collapsible=0;dropTarget=0;points=[[0,0.5],[1,0.5]];portConstraint=eastwest;top=0;left=0;right=0;bottom=0;" vertex="1" parent="oTnFx4NHUfr4klIpMlkJ-68">
          <mxGeometry y="60" width="250" height="30" as="geometry" />
        </mxCell>
        <mxCell id="oTnFx4NHUfr4klIpMlkJ-73" value="" style="shape=partialRectangle;connectable=0;fillColor=none;top=0;left=0;bottom=0;right=0;editable=1;overflow=hidden;whiteSpace=wrap;html=1;" vertex="1" parent="oTnFx4NHUfr4klIpMlkJ-72">
          <mxGeometry width="30" height="30" as="geometry">
            <mxRectangle width="30" height="30" as="alternateBounds" />
          </mxGeometry>
        </mxCell>
        <mxCell id="oTnFx4NHUfr4klIpMlkJ-74" value="&lt;span style=&quot;text-wrap: nowrap;&quot;&gt;name char(50) NOT NULL&lt;/span&gt;" style="shape=partialRectangle;connectable=0;fillColor=none;top=0;left=0;bottom=0;right=0;align=left;spacingLeft=6;overflow=hidden;whiteSpace=wrap;html=1;" vertex="1" parent="oTnFx4NHUfr4klIpMlkJ-72">
          <mxGeometry x="30" width="220" height="30" as="geometry">
            <mxRectangle width="220" height="30" as="alternateBounds" />
          </mxGeometry>
        </mxCell>
        <mxCell id="oTnFx4NHUfr4klIpMlkJ-75" value="" style="shape=tableRow;horizontal=0;startSize=0;swimlaneHead=0;swimlaneBody=0;fillColor=none;collapsible=0;dropTarget=0;points=[[0,0.5],[1,0.5]];portConstraint=eastwest;top=0;left=0;right=0;bottom=0;" vertex="1" parent="oTnFx4NHUfr4klIpMlkJ-68">
          <mxGeometry y="90" width="250" height="30" as="geometry" />
        </mxCell>
        <mxCell id="oTnFx4NHUfr4klIpMlkJ-76" value="" style="shape=partialRectangle;connectable=0;fillColor=none;top=0;left=0;bottom=0;right=0;editable=1;overflow=hidden;whiteSpace=wrap;html=1;" vertex="1" parent="oTnFx4NHUfr4klIpMlkJ-75">
          <mxGeometry width="30" height="30" as="geometry">
            <mxRectangle width="30" height="30" as="alternateBounds" />
          </mxGeometry>
        </mxCell>
        <mxCell id="oTnFx4NHUfr4klIpMlkJ-77" value="&lt;span style=&quot;text-wrap: nowrap;&quot;&gt;url char(50) NOT NULL&lt;/span&gt;" style="shape=partialRectangle;connectable=0;fillColor=none;top=0;left=0;bottom=0;right=0;align=left;spacingLeft=6;overflow=hidden;whiteSpace=wrap;html=1;" vertex="1" parent="oTnFx4NHUfr4klIpMlkJ-75">
          <mxGeometry x="30" width="220" height="30" as="geometry">
            <mxRectangle width="220" height="30" as="alternateBounds" />
          </mxGeometry>
        </mxCell>
        <mxCell id="oTnFx4NHUfr4klIpMlkJ-99" value="User_Role" style="shape=table;startSize=30;container=1;collapsible=1;childLayout=tableLayout;fixedRows=1;rowLines=0;fontStyle=1;align=center;resizeLast=1;html=1;whiteSpace=wrap;" vertex="1" parent="1">
          <mxGeometry x="238" y="92" width="233" height="150" as="geometry" />
        </mxCell>
        <mxCell id="oTnFx4NHUfr4klIpMlkJ-100" value="" style="shape=tableRow;horizontal=0;startSize=0;swimlaneHead=0;swimlaneBody=0;fillColor=none;collapsible=0;dropTarget=0;points=[[0,0.5],[1,0.5]];portConstraint=eastwest;top=0;left=0;right=0;bottom=0;html=1;" vertex="1" parent="oTnFx4NHUfr4klIpMlkJ-99">
          <mxGeometry y="30" width="233" height="30" as="geometry" />
        </mxCell>
        <mxCell id="oTnFx4NHUfr4klIpMlkJ-101" value="PK,FK1" style="shape=partialRectangle;connectable=0;fillColor=none;top=0;left=0;bottom=0;right=0;fontStyle=1;overflow=hidden;html=1;whiteSpace=wrap;" vertex="1" parent="oTnFx4NHUfr4klIpMlkJ-100">
          <mxGeometry width="60" height="30" as="geometry">
            <mxRectangle width="60" height="30" as="alternateBounds" />
          </mxGeometry>
        </mxCell>
        <mxCell id="oTnFx4NHUfr4klIpMlkJ-102" value="user_id int NOT NULL" style="shape=partialRectangle;connectable=0;fillColor=none;top=0;left=0;bottom=0;right=0;align=left;spacingLeft=6;fontStyle=5;overflow=hidden;html=1;whiteSpace=wrap;" vertex="1" parent="oTnFx4NHUfr4klIpMlkJ-100">
          <mxGeometry x="60" width="173" height="30" as="geometry">
            <mxRectangle width="173" height="30" as="alternateBounds" />
          </mxGeometry>
        </mxCell>
        <mxCell id="oTnFx4NHUfr4klIpMlkJ-103" value="" style="shape=tableRow;horizontal=0;startSize=0;swimlaneHead=0;swimlaneBody=0;fillColor=none;collapsible=0;dropTarget=0;points=[[0,0.5],[1,0.5]];portConstraint=eastwest;top=0;left=0;right=0;bottom=1;html=1;" vertex="1" parent="oTnFx4NHUfr4klIpMlkJ-99">
          <mxGeometry y="60" width="233" height="30" as="geometry" />
        </mxCell>
        <mxCell id="oTnFx4NHUfr4klIpMlkJ-104" value="PK,FK2" style="shape=partialRectangle;connectable=0;fillColor=none;top=0;left=0;bottom=0;right=0;fontStyle=1;overflow=hidden;html=1;whiteSpace=wrap;" vertex="1" parent="oTnFx4NHUfr4klIpMlkJ-103">
          <mxGeometry width="60" height="30" as="geometry">
            <mxRectangle width="60" height="30" as="alternateBounds" />
          </mxGeometry>
        </mxCell>
        <mxCell id="oTnFx4NHUfr4klIpMlkJ-105" value="role_id int NOT NULL" style="shape=partialRectangle;connectable=0;fillColor=none;top=0;left=0;bottom=0;right=0;align=left;spacingLeft=6;fontStyle=5;overflow=hidden;html=1;whiteSpace=wrap;" vertex="1" parent="oTnFx4NHUfr4klIpMlkJ-103">
          <mxGeometry x="60" width="173" height="30" as="geometry">
            <mxRectangle width="173" height="30" as="alternateBounds" />
          </mxGeometry>
        </mxCell>
        <mxCell id="oTnFx4NHUfr4klIpMlkJ-106" value="" style="shape=tableRow;horizontal=0;startSize=0;swimlaneHead=0;swimlaneBody=0;fillColor=none;collapsible=0;dropTarget=0;points=[[0,0.5],[1,0.5]];portConstraint=eastwest;top=0;left=0;right=0;bottom=0;html=1;" vertex="1" parent="oTnFx4NHUfr4klIpMlkJ-99">
          <mxGeometry y="90" width="233" height="30" as="geometry" />
        </mxCell>
        <mxCell id="oTnFx4NHUfr4klIpMlkJ-107" value="" style="shape=partialRectangle;connectable=0;fillColor=none;top=0;left=0;bottom=0;right=0;editable=1;overflow=hidden;html=1;whiteSpace=wrap;" vertex="1" parent="oTnFx4NHUfr4klIpMlkJ-106">
          <mxGeometry width="60" height="30" as="geometry">
            <mxRectangle width="60" height="30" as="alternateBounds" />
          </mxGeometry>
        </mxCell>
        <mxCell id="oTnFx4NHUfr4klIpMlkJ-108" value="Row 3" style="shape=partialRectangle;connectable=0;fillColor=none;top=0;left=0;bottom=0;right=0;align=left;spacingLeft=6;overflow=hidden;html=1;whiteSpace=wrap;" vertex="1" parent="oTnFx4NHUfr4klIpMlkJ-106">
          <mxGeometry x="60" width="173" height="30" as="geometry">
            <mxRectangle width="173" height="30" as="alternateBounds" />
          </mxGeometry>
        </mxCell>
        <mxCell id="oTnFx4NHUfr4klIpMlkJ-109" value="" style="shape=tableRow;horizontal=0;startSize=0;swimlaneHead=0;swimlaneBody=0;fillColor=none;collapsible=0;dropTarget=0;points=[[0,0.5],[1,0.5]];portConstraint=eastwest;top=0;left=0;right=0;bottom=0;html=1;" vertex="1" parent="oTnFx4NHUfr4klIpMlkJ-99">
          <mxGeometry y="120" width="233" height="30" as="geometry" />
        </mxCell>
        <mxCell id="oTnFx4NHUfr4klIpMlkJ-110" value="" style="shape=partialRectangle;connectable=0;fillColor=none;top=0;left=0;bottom=0;right=0;editable=1;overflow=hidden;html=1;whiteSpace=wrap;" vertex="1" parent="oTnFx4NHUfr4klIpMlkJ-109">
          <mxGeometry width="60" height="30" as="geometry">
            <mxRectangle width="60" height="30" as="alternateBounds" />
          </mxGeometry>
        </mxCell>
        <mxCell id="oTnFx4NHUfr4klIpMlkJ-111" value="Row 4" style="shape=partialRectangle;connectable=0;fillColor=none;top=0;left=0;bottom=0;right=0;align=left;spacingLeft=6;overflow=hidden;html=1;whiteSpace=wrap;" vertex="1" parent="oTnFx4NHUfr4klIpMlkJ-109">
          <mxGeometry x="60" width="173" height="30" as="geometry">
            <mxRectangle width="173" height="30" as="alternateBounds" />
          </mxGeometry>
        </mxCell>
        <mxCell id="oTnFx4NHUfr4klIpMlkJ-112" value="" style="edgeStyle=entityRelationEdgeStyle;fontSize=12;html=1;endArrow=ERzeroToMany;startArrow=ERmandOne;rounded=0;" edge="1" parent="1" source="oTnFx4NHUfr4klIpMlkJ-43" target="oTnFx4NHUfr4klIpMlkJ-100">
          <mxGeometry width="100" height="100" relative="1" as="geometry">
            <mxPoint x="168" y="368" as="sourcePoint" />
            <mxPoint x="-82" y="170" as="targetPoint" />
          </mxGeometry>
        </mxCell>
        <mxCell id="oTnFx4NHUfr4klIpMlkJ-114" value="" style="edgeStyle=entityRelationEdgeStyle;fontSize=12;html=1;endArrow=ERzeroToMany;startArrow=ERmandOne;rounded=0;exitX=0;exitY=0.5;exitDx=0;exitDy=0;" edge="1" parent="1" source="oTnFx4NHUfr4klIpMlkJ-56" target="oTnFx4NHUfr4klIpMlkJ-103">
          <mxGeometry width="100" height="100" relative="1" as="geometry">
            <mxPoint x="268" y="332" as="sourcePoint" />
            <mxPoint x="368" y="232" as="targetPoint" />
            <Array as="points">
              <mxPoint x="438" y="212" />
            </Array>
          </mxGeometry>
        </mxCell>
        <mxCell id="oTnFx4NHUfr4klIpMlkJ-115" value="Role_Menu" style="shape=table;startSize=30;container=1;collapsible=1;childLayout=tableLayout;fixedRows=1;rowLines=0;fontStyle=1;align=center;resizeLast=1;html=1;whiteSpace=wrap;" vertex="1" parent="1">
          <mxGeometry x="558" y="250" width="233" height="150" as="geometry" />
        </mxCell>
        <mxCell id="oTnFx4NHUfr4klIpMlkJ-116" value="" style="shape=tableRow;horizontal=0;startSize=0;swimlaneHead=0;swimlaneBody=0;fillColor=none;collapsible=0;dropTarget=0;points=[[0,0.5],[1,0.5]];portConstraint=eastwest;top=0;left=0;right=0;bottom=0;html=1;" vertex="1" parent="oTnFx4NHUfr4klIpMlkJ-115">
          <mxGeometry y="30" width="233" height="30" as="geometry" />
        </mxCell>
        <mxCell id="oTnFx4NHUfr4klIpMlkJ-117" value="PK,FK1" style="shape=partialRectangle;connectable=0;fillColor=none;top=0;left=0;bottom=0;right=0;fontStyle=1;overflow=hidden;html=1;whiteSpace=wrap;" vertex="1" parent="oTnFx4NHUfr4klIpMlkJ-116">
          <mxGeometry width="60" height="30" as="geometry">
            <mxRectangle width="60" height="30" as="alternateBounds" />
          </mxGeometry>
        </mxCell>
        <mxCell id="oTnFx4NHUfr4klIpMlkJ-118" value="role_id int NOT NULL" style="shape=partialRectangle;connectable=0;fillColor=none;top=0;left=0;bottom=0;right=0;align=left;spacingLeft=6;fontStyle=5;overflow=hidden;html=1;whiteSpace=wrap;" vertex="1" parent="oTnFx4NHUfr4klIpMlkJ-116">
          <mxGeometry x="60" width="173" height="30" as="geometry">
            <mxRectangle width="173" height="30" as="alternateBounds" />
          </mxGeometry>
        </mxCell>
        <mxCell id="oTnFx4NHUfr4klIpMlkJ-119" value="" style="shape=tableRow;horizontal=0;startSize=0;swimlaneHead=0;swimlaneBody=0;fillColor=none;collapsible=0;dropTarget=0;points=[[0,0.5],[1,0.5]];portConstraint=eastwest;top=0;left=0;right=0;bottom=1;html=1;" vertex="1" parent="oTnFx4NHUfr4klIpMlkJ-115">
          <mxGeometry y="60" width="233" height="30" as="geometry" />
        </mxCell>
        <mxCell id="oTnFx4NHUfr4klIpMlkJ-120" value="PK,FK2" style="shape=partialRectangle;connectable=0;fillColor=none;top=0;left=0;bottom=0;right=0;fontStyle=1;overflow=hidden;html=1;whiteSpace=wrap;" vertex="1" parent="oTnFx4NHUfr4klIpMlkJ-119">
          <mxGeometry width="60" height="30" as="geometry">
            <mxRectangle width="60" height="30" as="alternateBounds" />
          </mxGeometry>
        </mxCell>
        <mxCell id="oTnFx4NHUfr4klIpMlkJ-121" value="menu_id int NOT NULL" style="shape=partialRectangle;connectable=0;fillColor=none;top=0;left=0;bottom=0;right=0;align=left;spacingLeft=6;fontStyle=5;overflow=hidden;html=1;whiteSpace=wrap;" vertex="1" parent="oTnFx4NHUfr4klIpMlkJ-119">
          <mxGeometry x="60" width="173" height="30" as="geometry">
            <mxRectangle width="173" height="30" as="alternateBounds" />
          </mxGeometry>
        </mxCell>
        <mxCell id="oTnFx4NHUfr4klIpMlkJ-122" value="" style="shape=tableRow;horizontal=0;startSize=0;swimlaneHead=0;swimlaneBody=0;fillColor=none;collapsible=0;dropTarget=0;points=[[0,0.5],[1,0.5]];portConstraint=eastwest;top=0;left=0;right=0;bottom=0;html=1;" vertex="1" parent="oTnFx4NHUfr4klIpMlkJ-115">
          <mxGeometry y="90" width="233" height="30" as="geometry" />
        </mxCell>
        <mxCell id="oTnFx4NHUfr4klIpMlkJ-123" value="" style="shape=partialRectangle;connectable=0;fillColor=none;top=0;left=0;bottom=0;right=0;editable=1;overflow=hidden;html=1;whiteSpace=wrap;" vertex="1" parent="oTnFx4NHUfr4klIpMlkJ-122">
          <mxGeometry width="60" height="30" as="geometry">
            <mxRectangle width="60" height="30" as="alternateBounds" />
          </mxGeometry>
        </mxCell>
        <mxCell id="oTnFx4NHUfr4klIpMlkJ-124" value="Row 3" style="shape=partialRectangle;connectable=0;fillColor=none;top=0;left=0;bottom=0;right=0;align=left;spacingLeft=6;overflow=hidden;html=1;whiteSpace=wrap;" vertex="1" parent="oTnFx4NHUfr4klIpMlkJ-122">
          <mxGeometry x="60" width="173" height="30" as="geometry">
            <mxRectangle width="173" height="30" as="alternateBounds" />
          </mxGeometry>
        </mxCell>
        <mxCell id="oTnFx4NHUfr4klIpMlkJ-125" value="" style="shape=tableRow;horizontal=0;startSize=0;swimlaneHead=0;swimlaneBody=0;fillColor=none;collapsible=0;dropTarget=0;points=[[0,0.5],[1,0.5]];portConstraint=eastwest;top=0;left=0;right=0;bottom=0;html=1;" vertex="1" parent="oTnFx4NHUfr4klIpMlkJ-115">
          <mxGeometry y="120" width="233" height="30" as="geometry" />
        </mxCell>
        <mxCell id="oTnFx4NHUfr4klIpMlkJ-126" value="" style="shape=partialRectangle;connectable=0;fillColor=none;top=0;left=0;bottom=0;right=0;editable=1;overflow=hidden;html=1;whiteSpace=wrap;" vertex="1" parent="oTnFx4NHUfr4klIpMlkJ-125">
          <mxGeometry width="60" height="30" as="geometry">
            <mxRectangle width="60" height="30" as="alternateBounds" />
          </mxGeometry>
        </mxCell>
        <mxCell id="oTnFx4NHUfr4klIpMlkJ-127" value="Row 4" style="shape=partialRectangle;connectable=0;fillColor=none;top=0;left=0;bottom=0;right=0;align=left;spacingLeft=6;overflow=hidden;html=1;whiteSpace=wrap;" vertex="1" parent="oTnFx4NHUfr4klIpMlkJ-125">
          <mxGeometry x="60" width="173" height="30" as="geometry">
            <mxRectangle width="173" height="30" as="alternateBounds" />
          </mxGeometry>
        </mxCell>
        <mxCell id="oTnFx4NHUfr4klIpMlkJ-130" value="" style="edgeStyle=entityRelationEdgeStyle;fontSize=12;html=1;endArrow=ERzeroToMany;startArrow=ERmandOne;rounded=0;exitX=1;exitY=0.767;exitDx=0;exitDy=0;exitPerimeter=0;" edge="1" parent="1" source="oTnFx4NHUfr4klIpMlkJ-56" target="oTnFx4NHUfr4klIpMlkJ-116">
          <mxGeometry width="100" height="100" relative="1" as="geometry">
            <mxPoint x="798" y="170" as="sourcePoint" />
            <mxPoint x="798.0030000000003" y="304.33000000000004" as="targetPoint" />
            <Array as="points">
              <mxPoint x="353.1" y="342" />
            </Array>
          </mxGeometry>
        </mxCell>
        <mxCell id="oTnFx4NHUfr4klIpMlkJ-131" value="" style="edgeStyle=entityRelationEdgeStyle;fontSize=12;html=1;endArrow=ERzeroToMany;startArrow=ERmandOne;rounded=0;exitX=1;exitY=0.5;exitDx=0;exitDy=0;" edge="1" parent="1" source="oTnFx4NHUfr4klIpMlkJ-69" target="oTnFx4NHUfr4klIpMlkJ-119">
          <mxGeometry width="100" height="100" relative="1" as="geometry">
            <mxPoint x="878" y="562" as="sourcePoint" />
            <mxPoint x="795" y="377" as="targetPoint" />
            <Array as="points">
              <mxPoint x="305" y="352" />
            </Array>
          </mxGeometry>
        </mxCell>
        <mxCell id="oTnFx4NHUfr4klIpMlkJ-132" value="Paints" style="shape=table;startSize=30;container=1;collapsible=1;childLayout=tableLayout;fixedRows=1;rowLines=0;fontStyle=1;align=center;resizeLast=1;html=1;" vertex="1" parent="1">
          <mxGeometry x="880" y="330" width="250" height="150" as="geometry" />
        </mxCell>
        <mxCell id="oTnFx4NHUfr4klIpMlkJ-133" value="" style="shape=tableRow;horizontal=0;startSize=0;swimlaneHead=0;swimlaneBody=0;fillColor=none;collapsible=0;dropTarget=0;points=[[0,0.5],[1,0.5]];portConstraint=eastwest;top=0;left=0;right=0;bottom=1;" vertex="1" parent="oTnFx4NHUfr4klIpMlkJ-132">
          <mxGeometry y="30" width="250" height="30" as="geometry" />
        </mxCell>
        <mxCell id="oTnFx4NHUfr4klIpMlkJ-134" value="PK" style="shape=partialRectangle;connectable=0;fillColor=none;top=0;left=0;bottom=0;right=0;fontStyle=1;overflow=hidden;whiteSpace=wrap;html=1;" vertex="1" parent="oTnFx4NHUfr4klIpMlkJ-133">
          <mxGeometry width="30" height="30" as="geometry">
            <mxRectangle width="30" height="30" as="alternateBounds" />
          </mxGeometry>
        </mxCell>
        <mxCell id="oTnFx4NHUfr4klIpMlkJ-135" value="id int NOT NULL" style="shape=partialRectangle;connectable=0;fillColor=none;top=0;left=0;bottom=0;right=0;align=left;spacingLeft=6;fontStyle=5;overflow=hidden;whiteSpace=wrap;html=1;" vertex="1" parent="oTnFx4NHUfr4klIpMlkJ-133">
          <mxGeometry x="30" width="220" height="30" as="geometry">
            <mxRectangle width="220" height="30" as="alternateBounds" />
          </mxGeometry>
        </mxCell>
        <mxCell id="oTnFx4NHUfr4klIpMlkJ-136" value="" style="shape=tableRow;horizontal=0;startSize=0;swimlaneHead=0;swimlaneBody=0;fillColor=none;collapsible=0;dropTarget=0;points=[[0,0.5],[1,0.5]];portConstraint=eastwest;top=0;left=0;right=0;bottom=0;" vertex="1" parent="oTnFx4NHUfr4klIpMlkJ-132">
          <mxGeometry y="60" width="250" height="30" as="geometry" />
        </mxCell>
        <mxCell id="oTnFx4NHUfr4klIpMlkJ-137" value="" style="shape=partialRectangle;connectable=0;fillColor=none;top=0;left=0;bottom=0;right=0;editable=1;overflow=hidden;whiteSpace=wrap;html=1;" vertex="1" parent="oTnFx4NHUfr4klIpMlkJ-136">
          <mxGeometry width="30" height="30" as="geometry">
            <mxRectangle width="30" height="30" as="alternateBounds" />
          </mxGeometry>
        </mxCell>
        <mxCell id="oTnFx4NHUfr4klIpMlkJ-138" value="&lt;span style=&quot;text-wrap: nowrap;&quot;&gt;color char(50) NOT NULL&lt;/span&gt;" style="shape=partialRectangle;connectable=0;fillColor=none;top=0;left=0;bottom=0;right=0;align=left;spacingLeft=6;overflow=hidden;whiteSpace=wrap;html=1;" vertex="1" parent="oTnFx4NHUfr4klIpMlkJ-136">
          <mxGeometry x="30" width="220" height="30" as="geometry">
            <mxRectangle width="220" height="30" as="alternateBounds" />
          </mxGeometry>
        </mxCell>
        <mxCell id="oTnFx4NHUfr4klIpMlkJ-139" value="" style="shape=tableRow;horizontal=0;startSize=0;swimlaneHead=0;swimlaneBody=0;fillColor=none;collapsible=0;dropTarget=0;points=[[0,0.5],[1,0.5]];portConstraint=eastwest;top=0;left=0;right=0;bottom=0;" vertex="1" parent="oTnFx4NHUfr4klIpMlkJ-132">
          <mxGeometry y="90" width="250" height="30" as="geometry" />
        </mxCell>
        <mxCell id="oTnFx4NHUfr4klIpMlkJ-140" value="" style="shape=partialRectangle;connectable=0;fillColor=none;top=0;left=0;bottom=0;right=0;editable=1;overflow=hidden;whiteSpace=wrap;html=1;" vertex="1" parent="oTnFx4NHUfr4klIpMlkJ-139">
          <mxGeometry width="30" height="30" as="geometry">
            <mxRectangle width="30" height="30" as="alternateBounds" />
          </mxGeometry>
        </mxCell>
        <mxCell id="oTnFx4NHUfr4klIpMlkJ-141" value="&lt;span style=&quot;text-wrap: nowrap;&quot;&gt;status char(50) NOT NULL&lt;/span&gt;" style="shape=partialRectangle;connectable=0;fillColor=none;top=0;left=0;bottom=0;right=0;align=left;spacingLeft=6;overflow=hidden;whiteSpace=wrap;html=1;" vertex="1" parent="oTnFx4NHUfr4klIpMlkJ-139">
          <mxGeometry x="30" width="220" height="30" as="geometry">
            <mxRectangle width="220" height="30" as="alternateBounds" />
          </mxGeometry>
        </mxCell>
        <mxCell id="oTnFx4NHUfr4klIpMlkJ-142" value="" style="shape=tableRow;horizontal=0;startSize=0;swimlaneHead=0;swimlaneBody=0;fillColor=none;collapsible=0;dropTarget=0;points=[[0,0.5],[1,0.5]];portConstraint=eastwest;top=0;left=0;right=0;bottom=0;" vertex="1" parent="oTnFx4NHUfr4klIpMlkJ-132">
          <mxGeometry y="120" width="250" height="30" as="geometry" />
        </mxCell>
        <mxCell id="oTnFx4NHUfr4klIpMlkJ-143" value="" style="shape=partialRectangle;connectable=0;fillColor=none;top=0;left=0;bottom=0;right=0;editable=1;overflow=hidden;whiteSpace=wrap;html=1;" vertex="1" parent="oTnFx4NHUfr4klIpMlkJ-142">
          <mxGeometry width="30" height="30" as="geometry">
            <mxRectangle width="30" height="30" as="alternateBounds" />
          </mxGeometry>
        </mxCell>
        <mxCell id="oTnFx4NHUfr4klIpMlkJ-144" value="&lt;span style=&quot;text-wrap: nowrap;&quot;&gt;count int NOT NULL&lt;/span&gt;" style="shape=partialRectangle;connectable=0;fillColor=none;top=0;left=0;bottom=0;right=0;align=left;spacingLeft=6;overflow=hidden;whiteSpace=wrap;html=1;" vertex="1" parent="oTnFx4NHUfr4klIpMlkJ-142">
          <mxGeometry x="30" width="220" height="30" as="geometry">
            <mxRectangle width="220" height="30" as="alternateBounds" />
          </mxGeometry>
        </mxCell>
        <mxCell id="oTnFx4NHUfr4klIpMlkJ-145" value="Role_Paint" style="shape=table;startSize=30;container=1;collapsible=1;childLayout=tableLayout;fixedRows=1;rowLines=0;fontStyle=1;align=center;resizeLast=1;html=1;whiteSpace=wrap;" vertex="1" parent="1">
          <mxGeometry x="868" y="111" width="262" height="150" as="geometry" />
        </mxCell>
        <mxCell id="oTnFx4NHUfr4klIpMlkJ-146" value="" style="shape=tableRow;horizontal=0;startSize=0;swimlaneHead=0;swimlaneBody=0;fillColor=none;collapsible=0;dropTarget=0;points=[[0,0.5],[1,0.5]];portConstraint=eastwest;top=0;left=0;right=0;bottom=0;html=1;" vertex="1" parent="oTnFx4NHUfr4klIpMlkJ-145">
          <mxGeometry y="30" width="262" height="30" as="geometry" />
        </mxCell>
        <mxCell id="oTnFx4NHUfr4klIpMlkJ-147" value="PK,FK1" style="shape=partialRectangle;connectable=0;fillColor=none;top=0;left=0;bottom=0;right=0;fontStyle=1;overflow=hidden;html=1;whiteSpace=wrap;" vertex="1" parent="oTnFx4NHUfr4klIpMlkJ-146">
          <mxGeometry width="60" height="30" as="geometry">
            <mxRectangle width="60" height="30" as="alternateBounds" />
          </mxGeometry>
        </mxCell>
        <mxCell id="oTnFx4NHUfr4klIpMlkJ-148" value="role_id int NOT NULL" style="shape=partialRectangle;connectable=0;fillColor=none;top=0;left=0;bottom=0;right=0;align=left;spacingLeft=6;fontStyle=5;overflow=hidden;html=1;whiteSpace=wrap;" vertex="1" parent="oTnFx4NHUfr4klIpMlkJ-146">
          <mxGeometry x="60" width="202" height="30" as="geometry">
            <mxRectangle width="202" height="30" as="alternateBounds" />
          </mxGeometry>
        </mxCell>
        <mxCell id="oTnFx4NHUfr4klIpMlkJ-149" value="" style="shape=tableRow;horizontal=0;startSize=0;swimlaneHead=0;swimlaneBody=0;fillColor=none;collapsible=0;dropTarget=0;points=[[0,0.5],[1,0.5]];portConstraint=eastwest;top=0;left=0;right=0;bottom=1;html=1;" vertex="1" parent="oTnFx4NHUfr4klIpMlkJ-145">
          <mxGeometry y="60" width="262" height="30" as="geometry" />
        </mxCell>
        <mxCell id="oTnFx4NHUfr4klIpMlkJ-150" value="PK,FK2" style="shape=partialRectangle;connectable=0;fillColor=none;top=0;left=0;bottom=0;right=0;fontStyle=1;overflow=hidden;html=1;whiteSpace=wrap;" vertex="1" parent="oTnFx4NHUfr4klIpMlkJ-149">
          <mxGeometry width="60" height="30" as="geometry">
            <mxRectangle width="60" height="30" as="alternateBounds" />
          </mxGeometry>
        </mxCell>
        <mxCell id="oTnFx4NHUfr4klIpMlkJ-151" value="paint_id int NOT NULL" style="shape=partialRectangle;connectable=0;fillColor=none;top=0;left=0;bottom=0;right=0;align=left;spacingLeft=6;fontStyle=5;overflow=hidden;html=1;whiteSpace=wrap;" vertex="1" parent="oTnFx4NHUfr4klIpMlkJ-149">
          <mxGeometry x="60" width="202" height="30" as="geometry">
            <mxRectangle width="202" height="30" as="alternateBounds" />
          </mxGeometry>
        </mxCell>
        <mxCell id="oTnFx4NHUfr4klIpMlkJ-152" value="" style="shape=tableRow;horizontal=0;startSize=0;swimlaneHead=0;swimlaneBody=0;fillColor=none;collapsible=0;dropTarget=0;points=[[0,0.5],[1,0.5]];portConstraint=eastwest;top=0;left=0;right=0;bottom=0;html=1;" vertex="1" parent="oTnFx4NHUfr4klIpMlkJ-145">
          <mxGeometry y="90" width="262" height="30" as="geometry" />
        </mxCell>
        <mxCell id="oTnFx4NHUfr4klIpMlkJ-153" value="" style="shape=partialRectangle;connectable=0;fillColor=none;top=0;left=0;bottom=0;right=0;editable=1;overflow=hidden;html=1;whiteSpace=wrap;" vertex="1" parent="oTnFx4NHUfr4klIpMlkJ-152">
          <mxGeometry width="60" height="30" as="geometry">
            <mxRectangle width="60" height="30" as="alternateBounds" />
          </mxGeometry>
        </mxCell>
        <mxCell id="oTnFx4NHUfr4klIpMlkJ-154" value="permission boolean NOT NULL" style="shape=partialRectangle;connectable=0;fillColor=none;top=0;left=0;bottom=0;right=0;align=left;spacingLeft=6;overflow=hidden;html=1;whiteSpace=wrap;" vertex="1" parent="oTnFx4NHUfr4klIpMlkJ-152">
          <mxGeometry x="60" width="202" height="30" as="geometry">
            <mxRectangle width="202" height="30" as="alternateBounds" />
          </mxGeometry>
        </mxCell>
        <mxCell id="oTnFx4NHUfr4klIpMlkJ-155" value="" style="shape=tableRow;horizontal=0;startSize=0;swimlaneHead=0;swimlaneBody=0;fillColor=none;collapsible=0;dropTarget=0;points=[[0,0.5],[1,0.5]];portConstraint=eastwest;top=0;left=0;right=0;bottom=0;html=1;" vertex="1" parent="oTnFx4NHUfr4klIpMlkJ-145">
          <mxGeometry y="120" width="262" height="30" as="geometry" />
        </mxCell>
        <mxCell id="oTnFx4NHUfr4klIpMlkJ-156" value="" style="shape=partialRectangle;connectable=0;fillColor=none;top=0;left=0;bottom=0;right=0;editable=1;overflow=hidden;html=1;whiteSpace=wrap;" vertex="1" parent="oTnFx4NHUfr4klIpMlkJ-155">
          <mxGeometry width="60" height="30" as="geometry">
            <mxRectangle width="60" height="30" as="alternateBounds" />
          </mxGeometry>
        </mxCell>
        <mxCell id="oTnFx4NHUfr4klIpMlkJ-157" value="Row 4" style="shape=partialRectangle;connectable=0;fillColor=none;top=0;left=0;bottom=0;right=0;align=left;spacingLeft=6;overflow=hidden;html=1;whiteSpace=wrap;" vertex="1" parent="oTnFx4NHUfr4klIpMlkJ-155">
          <mxGeometry x="60" width="202" height="30" as="geometry">
            <mxRectangle width="202" height="30" as="alternateBounds" />
          </mxGeometry>
        </mxCell>
        <mxCell id="oTnFx4NHUfr4klIpMlkJ-158" value="" style="edgeStyle=entityRelationEdgeStyle;fontSize=12;html=1;endArrow=ERzeroToMany;startArrow=ERmandOne;rounded=0;entryX=0;entryY=0.5;entryDx=0;entryDy=0;exitX=1.002;exitY=0.128;exitDx=0;exitDy=0;exitPerimeter=0;" edge="1" parent="1" source="oTnFx4NHUfr4klIpMlkJ-56" target="oTnFx4NHUfr4klIpMlkJ-146">
          <mxGeometry width="100" height="100" relative="1" as="geometry">
            <mxPoint x="818" y="140" as="sourcePoint" />
            <mxPoint x="795" y="307" as="targetPoint" />
            <Array as="points">
              <mxPoint x="305" y="352" />
            </Array>
          </mxGeometry>
        </mxCell>
        <mxCell id="oTnFx4NHUfr4klIpMlkJ-159" value="" style="edgeStyle=entityRelationEdgeStyle;fontSize=12;html=1;endArrow=ERzeroToMany;startArrow=ERmandOne;rounded=0;entryX=1;entryY=0.5;entryDx=0;entryDy=0;" edge="1" parent="1" source="oTnFx4NHUfr4klIpMlkJ-133" target="oTnFx4NHUfr4klIpMlkJ-149">
          <mxGeometry width="100" height="100" relative="1" as="geometry">
            <mxPoint x="1108" y="342" as="sourcePoint" />
            <mxPoint x="898" y="252" as="targetPoint" />
            <Array as="points">
              <mxPoint x="1128" y="342" />
            </Array>
          </mxGeometry>
        </mxCell>
      </root>
    </mxGraphModel>
  </diagram>
</mxfile>
